<svg width="104" height="42" viewBox="0 0 104 42" fill="none" xmlns="http://www.w3.org/2000/svg">
<g id="Company logo">
<g id="Vector">
<path d="M7.09288 27.0187H0.0597369V30.0958H7.09288V27.0187Z" fill="#898989"/>
<path d="M17.6394 27.0187H10.6107V30.0958H17.6394V27.0187Z" fill="#898989"/>
<path d="M17.6413 20.8647H0.0556641V23.9418H17.6413V20.8647Z" fill="#898989"/>
<path d="M10.6105 14.7113H0.059741V17.7882H10.6105V14.7113Z" fill="#898989"/>
<path d="M17.6431 14.7113H14.1266V17.7882H17.6431V14.7113Z" fill="#898989"/>
<path d="M68.694 14.6937C63.0463 14.6937 60.1295 18.1884 60.1295 22.4992C60.1295 26.8103 62.9744 30.3053 68.694 30.3053C74.4136 30.3053 77.2585 26.8103 77.2585 22.4992C77.2588 18.1884 74.3415 14.6937 68.694 14.6937ZM72.9667 22.5132C72.9627 25.2854 71.8952 27.5307 68.694 27.5307C65.4928 27.5307 64.425 25.2856 64.4217 22.5132V22.4994C64.425 19.7275 65.493 17.4824 68.6942 17.4824C71.8952 17.4824 72.9627 19.7275 72.9667 22.4994V22.5064C72.9667 22.5088 72.9667 22.5109 72.9667 22.5132Z" fill="#898989"/>
<path d="M43.4061 30.0955V8.51427C43.4061 8.51427 46.6592 8.10993 46.9114 8.08023C47.1972 8.04646 47.5765 8.22446 47.5765 8.57639V16.5766C48.2516 16.015 48.995 15.5624 49.8052 15.2174C50.616 14.8729 51.5668 14.7003 52.6592 14.7003C53.6049 14.7003 54.4428 14.8406 55.1745 15.1215C55.9066 15.4018 56.5173 15.7963 57.0069 16.3031C57.4965 16.8107 57.8681 17.4163 58.1215 18.1206C58.3746 18.8248 58.5013 19.6005 58.5013 20.4476V30.0953H54.3306V20.4476C54.3306 19.5219 54.0857 18.8052 53.5961 18.2976C53.1062 17.7906 52.3717 17.5369 51.392 17.5369C50.6717 17.5369 49.9966 17.6798 49.3666 17.9657C48.7359 18.2514 48.1393 18.64 47.5765 19.1329V30.0955H43.4061Z" fill="#898989"/>
<path d="M99.0849 30.3033C96.2149 30.3033 94.4162 28.8418 94.4162 26.1153V18.0347H91.1817C91.1817 18.0347 91.8692 15.9542 91.9235 15.7904C91.9781 15.6267 92.1203 15.4509 92.4058 15.4161C92.6913 15.3814 94.4122 15.1714 94.4122 15.1714L95.2071 10.7467C95.2071 10.7467 97.5424 10.4587 97.9127 10.4103C98.2623 10.3645 98.5793 10.5848 98.5793 10.9181V15.1714H102.67V18.0347H98.5793V26.0064C98.5793 27.0948 99.3367 27.5108 100.063 27.5108C100.506 27.5108 101.114 27.3047 101.567 27.1206C101.848 27.0073 102.282 27.0913 102.394 27.4335C102.493 27.7368 103.02 29.3462 103.02 29.3462C102.565 29.6032 101.127 30.3033 99.0849 30.3033Z" fill="#898989"/>
<path d="M88.8908 18.083C88.078 17.852 86.5501 17.4822 85.0968 17.4822C83.616 17.4822 82.4509 17.9298 82.4509 19.0072C82.4509 20.3528 84.962 20.7445 86.6808 21.293C87.83 21.6597 90.9116 22.3746 90.9116 25.2747C90.9116 28.7975 87.5682 30.3036 84.0016 30.3036C80.4346 30.3036 78.3272 29.1428 78.3272 29.1428C78.3272 29.1428 78.8805 27.4327 78.9926 27.0951C79.0939 26.7913 79.4975 26.6848 79.7546 26.7711C80.6726 27.0807 82.3302 27.5111 84.2039 27.5111C86.1009 27.5111 87.0187 27.0043 87.0187 25.9238C87.0187 24.4858 84.457 24.0464 82.7628 23.5787C81.5957 23.2569 78.5065 22.5063 78.5065 19.3168C78.5065 16.1748 81.6596 14.7007 85.0294 14.7007C87.8819 14.7007 89.281 15.2227 90.3261 15.6886C90.3261 15.6886 89.7438 17.4645 89.6573 17.7291C89.5552 18.0436 89.2604 18.1878 88.8908 18.083Z" fill="#898989"/>
<path d="M41.7787 15.2209C41.7787 14.881 41.4468 14.6865 41.1302 14.7181C39.7306 14.8585 38.7321 15.4348 38.0861 15.9713C36.8176 15.1017 35.0568 14.6865 33.0806 14.6865C29.1185 14.6865 26.0228 16.3597 26.0228 20.0083C26.0228 22.1028 27.0418 23.546 28.6599 24.3957C27.4582 24.8934 26.6578 25.9496 26.6578 26.9879C26.6578 28.7248 28.226 29.2687 28.226 29.2687C28.226 29.2687 25.484 30.4332 25.484 32.763C25.484 35.7453 28.6206 36.9512 32.4534 36.9512C37.9783 36.9512 41.7794 34.9545 41.7794 31.2883C41.7794 29.0319 39.806 27.7863 35.5058 27.6382C32.9539 27.55 31.301 27.4697 30.8914 27.3511C30.3504 27.1938 30.0844 26.8147 30.0844 26.3962C30.0844 25.9342 30.5181 25.4944 31.2018 25.1923C31.7981 25.2847 32.4275 25.3303 33.081 25.3303C37.0465 25.3303 40.139 23.6619 40.139 20.0085C40.139 19.1226 39.9562 18.3535 39.6239 17.6964C40.2065 17.4245 40.9233 17.2331 41.7791 17.2331C41.7791 17.2331 41.7787 15.5309 41.7787 15.2209ZM30.8597 30.1147C30.8597 30.1147 32.9404 30.1836 35.0195 30.2678C37.3553 30.3624 38.0832 30.8028 38.0832 31.8611C38.0832 33.1541 36.0533 34.4118 33.2166 34.4118C30.5238 34.4118 29.1788 33.592 29.1788 32.2272C29.1788 31.4442 29.6513 30.5681 30.8597 30.1147ZM33.0881 22.7836C31.2111 22.7836 29.7467 21.9112 29.7467 20.0083C29.7467 18.1052 31.2125 17.2329 33.0881 17.2329C34.9641 17.2329 36.4296 18.1029 36.4296 20.0083C36.4296 21.9137 34.9658 22.7836 33.0881 22.7836Z" fill="#898989"/>
</g>
</g>
</svg>
