<svg width="123" height="42" viewBox="0 0 123 42" fill="none" xmlns="http://www.w3.org/2000/svg">
<g id="Company logo" clip-path="url(#clip0_994_2157)">
<path id="Vector" d="M18.3901 2.69336C8.26827 2.69336 0.0625 10.9203 0.0625 21.0685C0.0625 31.2171 8.26827 39.4434 18.3901 39.4434C28.5131 39.4434 36.7179 31.2171 36.7179 21.0685C36.7179 10.9209 28.5131 2.69424 18.3899 2.69424L18.3901 2.69336ZM26.795 29.1955C26.4668 29.7353 25.762 29.9065 25.2237 29.5751C20.9205 26.9398 15.5034 26.343 9.12377 27.8044C8.50901 27.9448 7.89621 27.5586 7.75614 26.942C7.61542 26.3255 7.99907 25.7111 8.61537 25.5706C15.5969 23.9715 21.5854 24.66 26.4164 27.6201C26.9548 27.9514 27.1255 28.6558 26.795 29.1955ZM29.0383 24.1922C28.6247 24.8663 27.7449 25.0791 27.073 24.6644C22.1465 21.6284 14.637 20.7492 8.80993 22.5226C8.05422 22.7515 7.25606 22.3245 7.0267 21.5681C6.79909 20.8104 7.2252 20.0117 7.9796 19.7813C14.6356 17.7565 22.9103 18.7373 28.5678 22.2229C29.2396 22.6376 29.4519 23.5197 29.0383 24.1924V24.1922ZM29.2309 18.9822C23.324 15.4646 13.5784 15.1411 7.93867 16.8573C7.03305 17.1326 6.07533 16.6201 5.80089 15.7121C5.52644 14.8037 6.03725 13.8441 6.94353 13.5681C13.4175 11.5976 24.1797 11.9783 30.9804 16.0261C31.7968 16.5108 32.0638 17.5656 31.5801 18.3812C31.0986 19.1979 30.0437 19.4671 29.2318 18.9822H29.2309ZM49.9259 19.6562C46.7612 18.8997 46.1988 18.3687 46.1988 17.2529C46.1988 16.1988 47.188 15.4894 48.6609 15.4894C50.0878 15.4894 51.5016 16.0281 52.9855 17.137C53.0292 17.1706 53.0861 17.184 53.1409 17.1752C53.1978 17.1669 53.2459 17.1364 53.2787 17.0905L54.8238 14.9068C54.8873 14.8168 54.8698 14.6928 54.7845 14.6242C53.0183 13.2038 51.0311 12.5133 48.7068 12.5133C45.2905 12.5133 42.9028 14.5691 42.9028 17.5105C42.9028 20.6647 44.9622 21.7816 48.5208 22.6437C51.5476 23.343 52.0597 23.9289 52.0597 24.976C52.0597 26.1368 51.0267 26.8587 49.3634 26.8587C47.5163 26.8587 46.0084 26.2333 44.3232 24.7719C44.2816 24.7346 44.2247 24.7193 44.1722 24.7215C44.1152 24.7258 44.0649 24.7522 44.0299 24.7939L42.2966 26.8609C42.2243 26.9486 42.2331 27.0759 42.3163 27.1505C44.2772 28.9059 46.689 29.8319 49.2934 29.8319C52.9745 29.8319 55.3535 27.8154 55.3535 24.6929C55.36 22.0583 53.7865 20.5991 49.9324 19.6591L49.9259 19.6562ZM63.6831 16.5272C62.0877 16.5272 60.7789 17.1574 59.6978 18.4488V16.9953C59.6978 16.8805 59.6058 16.787 59.492 16.787H56.6579C56.5441 16.787 56.4521 16.8805 56.4521 16.9953V33.1452C56.4521 33.2593 56.5441 33.3537 56.6579 33.3537H59.492C59.6058 33.3537 59.6978 33.2593 59.6978 33.1452V28.0479C60.7789 29.2614 62.0877 29.856 63.6831 29.856C66.6486 29.856 69.6513 27.5674 69.6513 23.1923C69.6557 18.8163 66.653 16.527 63.6853 16.527L63.6831 16.5272ZM66.3553 23.1923C66.3553 25.4192 64.9875 26.975 63.0266 26.975C61.0897 26.975 59.6277 25.349 59.6277 23.1923C59.6277 21.0353 61.0897 19.4098 63.0266 19.4098C64.9547 19.4096 66.3553 21 66.3553 23.1921V23.1923ZM77.3441 16.5272C73.525 16.5272 70.5333 19.4754 70.5333 23.2399C70.5333 26.964 73.5053 29.8801 77.2981 29.8801C81.1303 29.8801 84.1308 26.942 84.1308 23.1923C84.1308 19.4553 81.15 16.5277 77.3441 16.5277V16.5272ZM77.3441 26.9969C75.3131 26.9969 73.7811 25.36 73.7811 23.1912C73.7811 21.0125 75.2606 19.4316 77.2981 19.4316C79.3422 19.4316 80.883 21.0678 80.883 23.2388C80.883 25.417 79.3947 26.9969 77.3441 26.9969ZM92.2853 16.787H89.1666V13.5909C89.1666 13.4764 89.0747 13.3829 88.9609 13.3829H86.1267C86.0129 13.3829 85.9188 13.4764 85.9188 13.5909V16.787H84.5575C84.4437 16.787 84.3518 16.8805 84.3518 16.9953V19.4368C84.3518 19.5514 84.4437 19.6451 84.5575 19.6451H85.9188V25.9634C85.9188 28.5153 87.186 29.8099 89.6875 29.8099C90.703 29.8099 91.5456 29.5993 92.34 29.1473C92.4057 29.1122 92.4451 29.0419 92.4451 28.9673V26.6414C92.4451 26.5712 92.4079 26.5032 92.3466 26.4659C92.2853 26.4264 92.2087 26.4242 92.1453 26.4571C91.6003 26.7314 91.0729 26.8587 90.482 26.8587C89.5737 26.8587 89.1666 26.4439 89.1666 25.518V19.6462H92.2853C92.3991 19.6462 92.4911 19.5527 92.4911 19.4379V16.9966C92.4954 16.8818 92.4035 16.7884 92.2875 16.7884L92.2853 16.787ZM103.149 16.7996V16.407C103.149 15.2522 103.591 14.7372 104.581 14.7372C105.172 14.7372 105.646 14.8548 106.178 15.0325C106.244 15.0531 106.312 15.0428 106.364 15.0036C106.419 14.9643 106.45 14.9013 106.45 14.8346V12.4407C106.45 12.3492 106.393 12.2682 106.303 12.2412C105.743 12.0738 105.025 11.902 103.948 11.902C101.333 11.902 99.9475 13.3796 99.9475 16.1735V16.7748H98.5862C98.4724 16.7748 98.3783 16.8682 98.3783 16.9828V19.4368C98.3783 19.5514 98.4724 19.6451 98.5862 19.6451H99.9475V29.3886C99.9475 29.5049 100.042 29.5971 100.155 29.5971H102.987C103.103 29.5971 103.195 29.5049 103.195 29.3886V19.6457H105.841L109.894 29.3886C109.435 30.4112 108.982 30.6152 108.365 30.6152C107.866 30.6152 107.338 30.466 106.802 30.1698C106.752 30.1435 106.69 30.1391 106.638 30.1544C106.583 30.1742 106.537 30.2137 106.515 30.2663L105.555 32.3794C105.509 32.4803 105.548 32.5966 105.644 32.6493C106.647 33.1935 107.55 33.4261 108.669 33.4261C110.761 33.4261 111.919 32.4474 112.937 29.8187L117.852 17.0839C117.878 17.0199 117.87 16.9474 117.83 16.8906C117.793 16.8342 117.729 16.8002 117.662 16.8002H114.711C114.622 16.8002 114.543 16.8566 114.514 16.9398L111.492 25.5926L108.183 16.9341C108.152 16.8535 108.076 16.8002 107.99 16.8002H103.149V16.7996ZM96.8507 16.787H94.0165C93.9027 16.787 93.8086 16.8805 93.8086 16.9953V29.3886C93.8086 29.5049 93.9027 29.5971 94.0165 29.5971H96.8507C96.9645 29.5971 97.0586 29.5049 97.0586 29.3886V16.9962C97.0586 16.8814 96.9667 16.7879 96.8507 16.7879V16.787ZM95.45 11.1436C94.3273 11.1436 93.4168 12.0547 93.4168 13.1801C93.4168 14.3062 94.3273 15.2184 95.45 15.2184C96.5727 15.2184 97.481 14.3062 97.481 13.1801C97.481 12.0549 96.5705 11.1436 95.45 11.1436ZM120.273 20.772C119.152 20.772 118.279 19.8691 118.279 18.7726C118.279 17.6762 119.163 16.7629 120.284 16.7629C121.404 16.7629 122.277 17.6656 122.277 18.7612C122.277 19.8577 121.393 20.772 120.273 20.772ZM120.284 16.9617C119.261 16.9617 118.489 17.7758 118.489 18.7726C118.489 19.769 119.257 20.5721 120.273 20.5721C121.295 20.5721 122.067 19.7587 122.067 18.7612C122.067 17.7648 121.299 16.9617 120.284 16.9617ZM120.726 18.9668L121.29 19.7585H120.813L120.305 19.0322H119.87V19.7585H119.472V17.6599H120.404C120.892 17.6599 121.211 17.9094 121.211 18.3294C121.214 18.6734 121.014 18.8837 120.728 18.9668H120.726ZM120.389 18.02H119.87V18.6838H120.389C120.647 18.6838 120.802 18.5567 120.802 18.3515C120.802 18.1356 120.647 18.02 120.389 18.02Z" fill="#898989"/>
</g>
<defs>
<clipPath id="clip0_994_2157">
<rect width="122.182" height="42" fill="white"/>
</clipPath>
</defs>
</svg>
