<svg width="106" height="42" viewBox="0 0 106 42" fill="none" xmlns="http://www.w3.org/2000/svg">
<g id="Company logo" clip-path="url(#clip0_994_2159)">
<path id="Vector" d="M33.0922 28.3739L34.3662 25.3714C35.7611 26.413 37.5805 26.9643 39.4004 26.9643C40.7348 26.9643 41.5839 26.4437 41.5839 25.6472C41.5534 23.4412 33.5472 25.1569 33.4863 19.6106C33.4559 16.7918 35.9429 14.6165 39.4613 14.6165C41.5534 14.6165 43.6464 15.1375 45.1322 16.3326L43.9418 19.3992C42.5747 18.5128 40.8862 17.8949 39.279 17.8949C38.1873 17.8949 37.4592 18.4155 37.4592 19.09C37.4896 21.2654 45.5572 20.0702 45.6481 25.3714C45.6481 28.2515 43.2215 30.2738 39.764 30.2738C37.2169 30.2738 34.8816 29.6611 33.0918 28.3739H33.0922ZM83.8203 24.2841C83.4987 24.8603 83.0309 25.3398 82.4649 25.6735C81.8989 26.0072 81.2551 26.1831 80.5994 26.1832C78.556 26.1832 76.8997 24.5095 76.8997 22.4451C76.8997 20.3807 78.556 18.7071 80.5994 18.7071C81.2551 18.7072 81.8989 18.8831 82.4649 19.2168C83.0309 19.5505 83.4987 20.03 83.8203 20.6062L87.3621 18.6238C86.0355 16.2331 83.5049 14.6165 80.5994 14.6165C76.3199 14.6165 72.8507 18.1212 72.8507 22.4451C72.8507 26.7687 76.3199 30.2738 80.5994 30.2738C83.5049 30.2738 86.0355 28.6572 87.3621 26.2665L83.8203 24.2841ZM47.9464 29.9672H52.3743V8.09961H47.9469L47.9464 29.9672ZM89.5982 8.09961V29.9672H94.0261V23.4157L99.273 29.9672H104.933L98.2604 22.1842L104.447 14.9217H99.0303L94.0261 20.9597V8.09961H89.5982ZM66.0158 14.9226V16.7002C65.2881 15.4743 63.4987 14.6165 61.6184 14.6165C57.7364 14.6165 54.6734 18.0791 54.6734 22.4298C54.6734 26.7805 57.7364 30.2738 61.6184 30.2738C63.4987 30.2738 65.2881 29.4159 66.0158 28.1901V29.9672H70.4436V14.9226H66.0158ZM66.0158 24.3144C65.379 25.3867 64.0446 26.1827 62.5588 26.1827C60.5149 26.1827 58.8586 24.5095 58.8586 22.4451C58.8586 20.3807 60.5149 18.7071 62.5588 18.7071C64.0446 18.7071 65.379 19.5343 66.0158 20.6369V24.3144Z" fill="#898989"/>
<path id="Vector_2" d="M9.70805 7.61523C8.27313 7.61523 7.11006 8.79063 7.11006 10.2401C7.10971 10.5845 7.17664 10.9256 7.30702 11.2438C7.43739 11.5621 7.62866 11.8514 7.86991 12.0951C8.11115 12.3389 8.39765 12.5323 8.71304 12.6644C9.02843 12.7965 9.36653 12.8647 9.70805 12.865H12.3065V10.2401C12.3071 9.54463 12.0336 8.87737 11.5463 8.38511C11.0591 7.89286 10.3978 7.61593 9.70805 7.61523ZM9.70805 14.615H2.77963C1.34471 14.615 0.181641 15.7904 0.181641 17.2403C0.181641 18.6898 1.34471 19.8652 2.77963 19.8652H9.70848C11.143 19.8652 12.3065 18.6898 12.3065 17.2403C12.3065 15.7904 11.143 14.615 9.70805 14.615Z" fill="#898989"/>
<path id="Vector_3" d="M26.1639 17.2403C26.1639 15.7904 25.0004 14.615 23.5655 14.615C22.1305 14.615 20.9675 15.7904 20.9675 17.2403V19.8652H23.5655C24.2552 19.8645 24.9165 19.5876 25.4038 19.0954C25.8911 18.6031 26.1645 17.9358 26.1639 17.2403ZM19.2355 17.2403V10.2401C19.2361 9.54463 18.9626 8.87737 18.4753 8.38511C17.9881 7.89286 17.3268 7.61593 16.6371 7.61523C15.2021 7.61523 14.0391 8.79063 14.0391 10.2401V17.2399C14.0391 18.6903 15.2021 19.8657 16.6371 19.8657C17.3268 19.865 17.9881 19.588 18.4753 19.0958C18.9626 18.6035 19.2361 17.9363 19.2355 17.2408" fill="#898989"/>
<path id="Vector_4" d="M16.6371 33.8652C17.3268 33.8645 17.9881 33.5876 18.4753 33.0954C18.9626 32.6031 19.2361 31.9358 19.2355 31.2403C19.2361 30.5448 18.9626 29.8776 18.4753 29.3853C17.9881 28.893 17.3268 28.6161 16.6371 28.6154H14.0391V31.2403C14.0391 32.6898 15.2021 33.8652 16.6371 33.8652ZM16.6371 26.8655H23.5659C25.0004 26.8655 26.1639 25.6901 26.1639 24.2401C26.1645 23.5446 25.8911 22.8774 25.4038 22.3851C24.9165 21.8929 24.2552 21.6159 23.5655 21.6152H16.6371C15.2021 21.6152 14.0391 22.7906 14.0391 24.2401C14.0387 24.5845 14.1056 24.9256 14.236 25.2438C14.3664 25.5621 14.5577 25.8514 14.7989 26.0951C15.0402 26.3389 15.3267 26.5323 15.642 26.6644C15.9574 26.7965 16.2955 26.8647 16.6371 26.865" fill="#898989"/>
<path id="Vector_5" d="M0.181642 24.2401C0.181299 24.5845 0.248226 24.9256 0.378602 25.2438C0.508978 25.5621 0.700249 25.8514 0.941495 26.0951C1.18274 26.3389 1.46924 26.5323 1.78463 26.6644C2.10001 26.7965 2.43812 26.8647 2.77963 26.865C3.4694 26.8643 4.13064 26.5874 4.61793 26.0952C5.10521 25.6029 5.37864 24.9357 5.37806 24.2401V21.6152H2.77963C1.34471 21.6152 0.181642 22.7906 0.181642 24.2401ZM7.11006 24.2401V31.2399C7.11006 32.6898 8.27313 33.8652 9.70805 33.8652C10.3978 33.8645 11.0591 33.5876 11.5463 33.0954C12.0336 32.6031 12.3071 31.9358 12.3065 31.2403V24.2401C12.3068 23.8957 12.2399 23.5546 12.1095 23.2363C11.9791 22.918 11.7878 22.6287 11.5465 22.385C11.3052 22.1412 11.0186 21.9478 10.7032 21.8157C10.3878 21.6836 10.0496 21.6155 9.70805 21.6152C8.27313 21.6152 7.11006 22.7906 7.11006 24.2401Z" fill="#898989"/>
</g>
<defs>
<clipPath id="clip0_994_2159">
<rect width="105" height="42" fill="white" transform="translate(0.181641)"/>
</clipPath>
</defs>
</svg>
