<svg width="91" height="42" viewBox="0 0 91 42" fill="none" xmlns="http://www.w3.org/2000/svg">
<g id="Company logo" clip-path="url(#clip0_994_2165)">
<g id="Vector">
<path d="M0.181641 22.4383C0.235493 22.208 0.294029 21.9784 0.343979 21.7464C0.737338 19.9005 1.93146 18.3978 3.79679 17.1776C5.33198 16.1746 7.04278 15.3609 8.76372 14.5577C11.1036 13.4646 13.3748 12.2959 15.5421 11.017C15.6389 10.9602 15.7131 10.8354 15.7138 10.7423C15.7255 9.61747 15.7216 8.4921 15.7216 7.36731V7.10721H21.2981V7.34564C21.2981 12.01 21.3067 16.6749 21.2934 21.3393C21.2888 23.1266 20.9024 24.8642 19.7723 26.4629C18.2535 28.6117 15.9222 29.9386 12.6833 30.3059C10.3715 30.5684 8.07847 30.4916 5.9228 29.7863C2.59096 28.6967 0.681924 26.7634 0.247981 24.0358C0.239396 23.9825 0.204274 23.9304 0.181641 23.8782V22.4383ZM15.7216 16.0293C14.451 16.8489 13.0813 17.4593 11.6866 18.0469C10.1186 18.7071 8.617 19.4406 7.24883 20.3258C5.64339 21.3645 4.98858 23.921 7.09273 25.3117C8.97055 26.5525 12.9424 26.87 14.7937 24.3838C15.4368 23.5215 15.6873 22.5724 15.7037 21.597C15.7349 19.7974 15.7177 17.9977 15.7209 16.1986L15.7216 16.0293Z" fill="#898989"/>
<path d="M46.7721 36.7506C46.7628 36.6692 46.7464 36.5878 46.7464 36.5069C46.7448 31.767 46.7362 27.0277 46.7503 22.2883C46.755 20.4875 47.1382 18.7371 48.2254 17.1079C49.5865 15.0704 51.7718 13.8249 54.7462 13.3955C56.9323 13.0803 59.1169 13.1272 61.2554 13.6316C64.7964 14.4664 67.3657 16.8613 67.7107 19.6164C68.0892 22.6445 66.6141 25.0587 63.4509 26.9246C61.9711 27.7969 60.3672 28.525 58.7571 29.2491C56.5444 30.2444 54.4684 31.385 52.4852 32.6241C52.3002 32.7389 52.2214 32.8549 52.2237 33.0388C52.2347 34.2767 52.2292 35.5134 52.2292 36.7506H46.7721ZM52.2284 27.6744C52.3361 27.6053 52.3939 27.5649 52.4555 27.5286C53.0877 27.1507 53.684 26.7312 54.3607 26.4067C55.5017 25.8601 56.7115 25.3932 57.8611 24.856C58.9358 24.354 60.0019 23.8326 60.8971 23.1489C62.7242 21.7547 62.6618 19.5959 60.8113 18.2743C58.946 16.9415 54.6143 16.7271 52.9511 19.5209C52.4712 20.327 52.2714 21.1823 52.2464 22.0552C52.212 23.2766 52.2315 24.4993 52.2292 25.7213C52.2276 26.3575 52.2284 26.9931 52.2284 27.6744Z" fill="#898989"/>
<path d="M89.2251 26.3088C89.1447 26.5678 89.0799 26.8302 88.98 27.0856C88.4532 28.4278 87.4292 29.474 85.7223 30.0944C84.9137 30.3885 84.0568 30.542 83.1514 30.5414C78.7956 30.5385 74.4382 30.5397 70.0824 30.5397H69.7015V26.399H70.0364C74.3329 26.399 78.6301 26.3996 82.9259 26.399C83.4402 26.399 83.626 26.2555 83.7149 25.8782C83.8944 25.1196 83.2451 24.5648 82.3514 24.2385C81.656 23.9849 80.9044 23.9046 80.1404 23.9011C78.4264 23.8941 76.7305 23.7886 75.093 23.3785C73.1957 22.904 71.5817 22.1237 70.4875 20.8337C69.7546 19.9696 69.5376 18.9942 69.6016 17.9907C69.7359 15.8677 71.2804 14.481 73.7873 13.6456C74.5787 13.3814 75.4482 13.3392 76.3129 13.3392C80.1201 13.341 83.9264 13.3398 87.7336 13.3404C87.782 13.3404 87.8311 13.3445 87.8975 13.3474V17.4429H87.5509C83.8437 17.4429 80.1365 17.4429 76.43 17.4424C76.0241 17.4424 75.6277 17.4494 75.3693 17.747C74.9916 18.1817 75.175 18.7552 75.8025 19.0534C76.4831 19.3756 77.244 19.542 78.0323 19.5964C79.0937 19.6708 80.1646 19.6691 81.2268 19.7429C83.5729 19.9075 85.6778 20.4951 87.3027 21.8372C88.315 22.6714 88.9371 23.6568 89.1626 24.7769C89.172 24.8243 89.2048 24.8689 89.2258 24.914L89.2251 26.3088Z" fill="#898989"/>
<path d="M41.5553 7.00059C41.7192 7.04335 41.887 7.07967 42.0454 7.13064C44.1465 7.80668 44.4836 9.33686 43.2544 10.413C42.4302 11.1348 41.0223 11.3328 39.928 10.8975C38.801 10.4505 38.1587 9.45168 38.5068 8.56474C38.7995 7.82074 39.5074 7.34154 40.4822 7.08787C40.5992 7.05741 40.7171 7.02929 40.8349 7L41.5553 7.00059Z" fill="#898989"/>
<path d="M29.4928 30.5309H23.9952V30.2831C23.9952 27.4331 23.9663 24.5836 24.003 21.7336C24.0428 18.6937 25.7356 16.3 29.1635 14.6474C30.5964 13.9567 32.219 13.6322 33.8877 13.44C34.427 13.3785 34.9757 13.3586 35.5462 13.3176V17.3363C34.6463 17.3633 33.7886 17.515 32.9683 17.7833C30.6495 18.5408 29.5022 19.8771 29.4952 21.7646C29.4866 24.6 29.4928 27.4342 29.4928 30.2696V30.5309Z" fill="#898989"/>
<path d="M43.9397 13.3574H38.4475V30.5332H43.9397V13.3574Z" fill="#898989"/>
</g>
</g>
<defs>
<clipPath id="clip0_994_2165">
<rect width="89.8333" height="42" fill="white" transform="translate(0.181641)"/>
</clipPath>
</defs>
</svg>
